<svg xmlns="http://www.w3.org/2000/svg" viewBox="96 44 448 392" role="img" aria-labelledby="title desc">
  <title id="title">nook favicon</title>
  <desc id="desc">Rounded house-like nook mark.</desc>
  <style>
    :root {
      color-scheme: light dark;
    }

    .mark {
      fill: #111317;
    }

    @media (prefers-color-scheme: dark) {
      .mark {
        fill: #ffffff;
      }
    }
  </style>
  <path class="mark" fill-rule="evenodd" d="
    M320 64
    C344 64 362 78 380 92
    L492 180
    C512 196 524 220 524 246
    L524 354
    C524 388 496 416 462 416
    L393 416
    L393 322
    C393 282 360 249 320 249
    C280 249 247 282 247 322
    L247 416
    L178 416
    C144 416 116 388 116 354
    L116 246
    C116 220 128 196 148 180
    L260 92
    C278 78 296 64 320 64
    Z
  "/>
</svg>
